{
    "patcher": {
        "fileversion": 1,
        "appversion": {
            "major": 9,
            "minor": 1,
            "revision": 1,
            "architecture": "x64",
            "modernui": 1
        },
        "classnamespace": "box",
        "rect": [ 59.0, 125.0, 1516.0, 536.0 ],
        "openinpresentation": 1,
        "boxes": [
            {
                "box": {
                    "format": 6,
                    "id": "obj-115",
                    "maxclass": "flonum",
                    "numinlets": 1,
                    "numoutlets": 2,
                    "outlettype": [ "", "bang" ],
                    "parameter_enable": 0,
                    "patching_rect": [ 878.6666913628578, 226.00000375509262, 50.0, 22.0 ]
                }
            },
            {
                "box": {
                    "format": 6,
                    "id": "obj-116",
                    "maxclass": "flonum",
                    "numinlets": 1,
                    "numoutlets": 2,
                    "outlettype": [ "", "bang" ],
                    "parameter_enable": 0,
                    "patching_rect": [ 760.0000211596489, 226.00000375509262, 50.0, 22.0 ]
                }
            },
            {
                "box": {
                    "format": 6,
                    "id": "obj-112",
                    "maxclass": "flonum",
                    "numinlets": 1,
                    "numoutlets": 2,
                    "outlettype": [ "", "bang" ],
                    "parameter_enable": 0,
                    "patching_rect": [ 642.0000176429749, 226.00000375509262, 50.0, 22.0 ]
                }
            },
            {
                "box": {
                    "format": 6,
                    "id": "obj-113",
                    "maxclass": "flonum",
                    "numinlets": 1,
                    "numoutlets": 2,
                    "outlettype": [ "", "bang" ],
                    "parameter_enable": 0,
                    "patching_rect": [ 524.0000141263008, 226.00000375509262, 50.0, 22.0 ]
                }
            },
            {
                "box": {
                    "format": 6,
                    "id": "obj-110",
                    "maxclass": "flonum",
                    "numinlets": 1,
                    "numoutlets": 2,
                    "outlettype": [ "", "bang" ],
                    "parameter_enable": 0,
                    "patching_rect": [ 406.00001060962677, 226.00000375509262, 50.0, 22.0 ]
                }
            },
            {
                "box": {
                    "format": 6,
                    "id": "obj-111",
                    "maxclass": "flonum",
                    "numinlets": 1,
                    "numoutlets": 2,
                    "outlettype": [ "", "bang" ],
                    "parameter_enable": 0,
                    "patching_rect": [ 286.66667371988297, 226.00000375509262, 50.0, 22.0 ]
                }
            },
            {
                "box": {
                    "format": 6,
                    "id": "obj-109",
                    "maxclass": "flonum",
                    "numinlets": 1,
                    "numoutlets": 2,
                    "outlettype": [ "", "bang" ],
                    "parameter_enable": 0,
                    "patching_rect": [ 168.00000351667404, 226.00000375509262, 50.0, 22.0 ]
                }
            },
            {
                "box": {
                    "args": [ "dac-8" ],
                    "bgmode": 0,
                    "border": 0,
                    "clickthrough": 0,
                    "enablehscroll": 0,
                    "enablevscroll": 0,
                    "id": "obj-108",
                    "lockeddragscroll": 0,
                    "lockedsize": 0,
                    "maxclass": "bpatcher",
                    "name": "ease-scale.maxpat",
                    "numinlets": 3,
                    "numoutlets": 1,
                    "offset": [ 0.0, 0.0 ],
                    "outlettype": [ "float" ],
                    "patching_rect": [ 878.6666913628578, 154.0000016093254, 44.64285671710968, 58.035713732242584 ],
                    "presentation": 1,
                    "presentation_rect": [ 1063.0, 3.0, 152.3316056728363, 139.8963725566864 ],
                    "varname": "ease-scale-8",
                    "viewvisibility": 1
                }
            },
            {
                "box": {
                    "args": [ "dac-7" ],
                    "bgmode": 0,
                    "border": 0,
                    "clickthrough": 0,
                    "enablehscroll": 0,
                    "enablevscroll": 0,
                    "id": "obj-107",
                    "lockeddragscroll": 0,
                    "lockedsize": 0,
                    "maxclass": "bpatcher",
                    "name": "ease-scale.maxpat",
                    "numinlets": 3,
                    "numoutlets": 1,
                    "offset": [ 0.0, 0.0 ],
                    "outlettype": [ "float" ],
                    "patching_rect": [ 760.0000211596489, 154.0000016093254, 44.64285671710968, 58.035713732242584 ],
                    "presentation": 1,
                    "presentation_rect": [ 911.0, 3.0, 152.3316056728363, 139.8963725566864 ],
                    "varname": "ease-scale-7",
                    "viewvisibility": 1
                }
            },
            {
                "box": {
                    "args": [ "dac-6" ],
                    "bgmode": 0,
                    "border": 0,
                    "clickthrough": 0,
                    "enablehscroll": 0,
                    "enablevscroll": 0,
                    "id": "obj-105",
                    "lockeddragscroll": 0,
                    "lockedsize": 0,
                    "maxclass": "bpatcher",
                    "name": "ease-scale.maxpat",
                    "numinlets": 3,
                    "numoutlets": 1,
                    "offset": [ 0.0, 0.0 ],
                    "outlettype": [ "float" ],
                    "patching_rect": [ 642.0000176429749, 154.0000016093254, 44.64285671710968, 58.035713732242584 ],
                    "presentation": 1,
                    "presentation_rect": [ 760.0, 3.0, 152.3316056728363, 139.8963725566864 ],
                    "varname": "ease-scale-6",
                    "viewvisibility": 1
                }
            },
            {
                "box": {
                    "args": [ "dac-5" ],
                    "bgmode": 0,
                    "border": 0,
                    "clickthrough": 0,
                    "enablehscroll": 0,
                    "enablevscroll": 0,
                    "id": "obj-103",
                    "lockeddragscroll": 0,
                    "lockedsize": 0,
                    "maxclass": "bpatcher",
                    "name": "ease-scale.maxpat",
                    "numinlets": 3,
                    "numoutlets": 1,
                    "offset": [ 0.0, 0.0 ],
                    "outlettype": [ "float" ],
                    "patching_rect": [ 524.0000141263008, 154.0000016093254, 44.64285671710968, 58.035713732242584 ],
                    "presentation": 1,
                    "presentation_rect": [ 609.0, 3.0, 153.88600981235504, 139.8963725566864 ],
                    "varname": "ease-scale-5",
                    "viewvisibility": 1
                }
            },
            {
                "box": {
                    "args": [ "dac-4" ],
                    "bgmode": 0,
                    "border": 0,
                    "clickthrough": 0,
                    "enablehscroll": 0,
                    "enablevscroll": 0,
                    "id": "obj-102",
                    "lockeddragscroll": 0,
                    "lockedsize": 0,
                    "maxclass": "bpatcher",
                    "name": "ease-scale.maxpat",
                    "numinlets": 3,
                    "numoutlets": 1,
                    "offset": [ 0.0, 0.0 ],
                    "outlettype": [ "float" ],
                    "patching_rect": [ 406.00001060962677, 154.0000016093254, 44.64285671710968, 58.035713732242584 ],
                    "presentation": 1,
                    "presentation_rect": [ 457.0, 3.0, 152.3316056728363, 139.8963725566864 ],
                    "varname": "ease-scale-4",
                    "viewvisibility": 1
                }
            },
            {
                "box": {
                    "args": [ "dac-3" ],
                    "bgmode": 0,
                    "border": 0,
                    "clickthrough": 0,
                    "enablehscroll": 0,
                    "enablevscroll": 0,
                    "id": "obj-96",
                    "lockeddragscroll": 0,
                    "lockedsize": 0,
                    "maxclass": "bpatcher",
                    "name": "ease-scale.maxpat",
                    "numinlets": 3,
                    "numoutlets": 1,
                    "offset": [ 0.0, 0.0 ],
                    "outlettype": [ "float" ],
                    "patching_rect": [ 286.66667371988297, 154.0000016093254, 44.64285671710968, 58.035713732242584 ],
                    "presentation": 1,
                    "presentation_rect": [ 305.0, 3.0, 152.3316056728363, 139.8963725566864 ],
                    "varname": "ease-scale-3",
                    "viewvisibility": 1
                }
            },
            {
                "box": {
                    "args": [ "dac-2" ],
                    "bgmode": 0,
                    "border": 0,
                    "clickthrough": 0,
                    "enablehscroll": 0,
                    "enablevscroll": 0,
                    "id": "obj-95",
                    "lockeddragscroll": 0,
                    "lockedsize": 0,
                    "maxclass": "bpatcher",
                    "name": "ease-scale.maxpat",
                    "numinlets": 3,
                    "numoutlets": 1,
                    "offset": [ 0.0, 0.0 ],
                    "outlettype": [ "float" ],
                    "patching_rect": [ 168.00000351667404, 154.0000016093254, 44.64285671710968, 58.035713732242584 ],
                    "presentation": 1,
                    "presentation_rect": [ 154.0, 3.0, 152.3316056728363, 139.8963725566864 ],
                    "varname": "ease-scale-2",
                    "viewvisibility": 1
                }
            },
            {
                "box": {
                    "format": 6,
                    "id": "obj-94",
                    "maxclass": "flonum",
                    "numinlets": 1,
                    "numoutlets": 2,
                    "outlettype": [ "", "bang" ],
                    "parameter_enable": 0,
                    "patching_rect": [ 50.0, 226.00000375509262, 50.0, 22.0 ]
                }
            },
            {
                "box": {
                    "args": [ "dac-1" ],
                    "bgmode": 0,
                    "border": 0,
                    "clickthrough": 0,
                    "enablehscroll": 0,
                    "enablevscroll": 0,
                    "id": "obj-41",
                    "lockeddragscroll": 0,
                    "lockedsize": 0,
                    "maxclass": "bpatcher",
                    "name": "ease-scale.maxpat",
                    "numinlets": 3,
                    "numoutlets": 1,
                    "offset": [ 0.0, 0.0 ],
                    "outlettype": [ "float" ],
                    "patching_rect": [ 50.0, 154.0000016093254, 44.64285671710968, 58.035713732242584 ],
                    "presentation": 1,
                    "presentation_rect": [ 3.0, 3.0, 152.3316056728363, 139.8963725566864 ],
                    "varname": "ease-scale-1",
                    "viewvisibility": 1
                }
            },
            {
                "box": {
                    "id": "obj-157",
                    "maxclass": "message",
                    "numinlets": 2,
                    "numoutlets": 1,
                    "outlettype": [ "" ],
                    "patching_rect": [ 878.6666913628578, 282.66667211055756, 117.0, 22.0 ],
                    "text": "/dac7578.8/value $1"
                }
            },
            {
                "box": {
                    "id": "obj-153",
                    "maxclass": "message",
                    "numinlets": 2,
                    "numoutlets": 1,
                    "outlettype": [ "" ],
                    "patching_rect": [ 760.0000211596489, 284.0000054836273, 117.0, 22.0 ],
                    "text": "/dac7578.7/value $1"
                }
            },
            {
                "box": {
                    "id": "obj-148",
                    "maxclass": "message",
                    "numinlets": 2,
                    "numoutlets": 1,
                    "outlettype": [ "" ],
                    "patching_rect": [ 642.0000176429749, 282.66667211055756, 117.0, 22.0 ],
                    "text": "/dac7578.6/value $1"
                }
            },
            {
                "box": {
                    "id": "obj-142",
                    "maxclass": "message",
                    "numinlets": 2,
                    "numoutlets": 1,
                    "outlettype": [ "" ],
                    "patching_rect": [ 524.0000141263008, 282.66667211055756, 117.0, 22.0 ],
                    "text": "/dac7578.5/value $1"
                }
            },
            {
                "box": {
                    "id": "obj-137",
                    "maxclass": "message",
                    "numinlets": 2,
                    "numoutlets": 1,
                    "outlettype": [ "" ],
                    "patching_rect": [ 406.00001060962677, 282.66667211055756, 117.0, 22.0 ],
                    "text": "/dac7578.4/value $1"
                }
            },
            {
                "box": {
                    "id": "obj-133",
                    "maxclass": "message",
                    "numinlets": 2,
                    "numoutlets": 1,
                    "outlettype": [ "" ],
                    "patching_rect": [ 286.66667371988297, 282.66667211055756, 117.0, 22.0 ],
                    "text": "/dac7578.3/value $1"
                }
            },
            {
                "box": {
                    "id": "obj-128",
                    "maxclass": "message",
                    "numinlets": 2,
                    "numoutlets": 1,
                    "outlettype": [ "" ],
                    "patching_rect": [ 168.00000351667404, 284.0000054836273, 117.0, 22.0 ],
                    "text": "/dac7578.2/value $1"
                }
            },
            {
                "box": {
                    "id": "obj-97",
                    "maxclass": "message",
                    "numinlets": 2,
                    "numoutlets": 1,
                    "outlettype": [ "" ],
                    "patching_rect": [ 50.0, 284.0000054836273, 117.0, 22.0 ],
                    "text": "/dac7578.1/value $1"
                }
            },
            {
                "box": {
                    "id": "obj-123",
                    "maxclass": "newobj",
                    "numinlets": 9,
                    "numoutlets": 9,
                    "outlettype": [ "", "", "", "", "", "", "", "", "" ],
                    "patching_rect": [ 50.0, 100.0, 967.0000282526016, 22.0 ],
                    "text": "route 36 37 38 39 40 41 42 43"
                }
            },
            {
                "box": {
                    "comment": "",
                    "id": "obj-143",
                    "index": 1,
                    "maxclass": "inlet",
                    "numinlets": 0,
                    "numoutlets": 1,
                    "outlettype": [ "" ],
                    "patching_rect": [ 49.99999863774491, 40.00000007690812, 30.0, 30.0 ]
                }
            },
            {
                "box": {
                    "comment": "",
                    "id": "obj-144",
                    "index": 1,
                    "maxclass": "outlet",
                    "numinlets": 1,
                    "numoutlets": 0,
                    "patching_rect": [ 458.41670063774495, 365.00003007690816, 30.0, 30.0 ]
                }
            }
        ],
        "lines": [
            {
                "patchline": {
                    "destination": [ "obj-110", 0 ],
                    "source": [ "obj-102", 0 ]
                }
            },
            {
                "patchline": {
                    "destination": [ "obj-113", 0 ],
                    "source": [ "obj-103", 0 ]
                }
            },
            {
                "patchline": {
                    "destination": [ "obj-112", 0 ],
                    "source": [ "obj-105", 0 ]
                }
            },
            {
                "patchline": {
                    "destination": [ "obj-116", 0 ],
                    "source": [ "obj-107", 0 ]
                }
            },
            {
                "patchline": {
                    "destination": [ "obj-115", 0 ],
                    "source": [ "obj-108", 0 ]
                }
            },
            {
                "patchline": {
                    "destination": [ "obj-128", 0 ],
                    "source": [ "obj-109", 0 ]
                }
            },
            {
                "patchline": {
                    "destination": [ "obj-137", 0 ],
                    "source": [ "obj-110", 0 ]
                }
            },
            {
                "patchline": {
                    "destination": [ "obj-133", 0 ],
                    "source": [ "obj-111", 0 ]
                }
            },
            {
                "patchline": {
                    "destination": [ "obj-148", 0 ],
                    "source": [ "obj-112", 0 ]
                }
            },
            {
                "patchline": {
                    "destination": [ "obj-142", 0 ],
                    "source": [ "obj-113", 0 ]
                }
            },
            {
                "patchline": {
                    "destination": [ "obj-157", 0 ],
                    "source": [ "obj-115", 0 ]
                }
            },
            {
                "patchline": {
                    "destination": [ "obj-153", 0 ],
                    "source": [ "obj-116", 0 ]
                }
            },
            {
                "patchline": {
                    "destination": [ "obj-102", 0 ],
                    "source": [ "obj-123", 3 ]
                }
            },
            {
                "patchline": {
                    "destination": [ "obj-103", 0 ],
                    "source": [ "obj-123", 4 ]
                }
            },
            {
                "patchline": {
                    "destination": [ "obj-105", 0 ],
                    "source": [ "obj-123", 5 ]
                }
            },
            {
                "patchline": {
                    "destination": [ "obj-107", 0 ],
                    "source": [ "obj-123", 6 ]
                }
            },
            {
                "patchline": {
                    "destination": [ "obj-108", 0 ],
                    "source": [ "obj-123", 7 ]
                }
            },
            {
                "patchline": {
                    "destination": [ "obj-41", 0 ],
                    "source": [ "obj-123", 0 ]
                }
            },
            {
                "patchline": {
                    "destination": [ "obj-95", 0 ],
                    "source": [ "obj-123", 1 ]
                }
            },
            {
                "patchline": {
                    "destination": [ "obj-96", 0 ],
                    "source": [ "obj-123", 2 ]
                }
            },
            {
                "patchline": {
                    "destination": [ "obj-144", 0 ],
                    "source": [ "obj-128", 0 ]
                }
            },
            {
                "patchline": {
                    "destination": [ "obj-144", 0 ],
                    "source": [ "obj-133", 0 ]
                }
            },
            {
                "patchline": {
                    "destination": [ "obj-144", 0 ],
                    "source": [ "obj-137", 0 ]
                }
            },
            {
                "patchline": {
                    "destination": [ "obj-144", 0 ],
                    "source": [ "obj-142", 0 ]
                }
            },
            {
                "patchline": {
                    "destination": [ "obj-123", 0 ],
                    "source": [ "obj-143", 0 ]
                }
            },
            {
                "patchline": {
                    "destination": [ "obj-144", 0 ],
                    "source": [ "obj-148", 0 ]
                }
            },
            {
                "patchline": {
                    "destination": [ "obj-144", 0 ],
                    "source": [ "obj-153", 0 ]
                }
            },
            {
                "patchline": {
                    "destination": [ "obj-144", 0 ],
                    "source": [ "obj-157", 0 ]
                }
            },
            {
                "patchline": {
                    "destination": [ "obj-94", 0 ],
                    "source": [ "obj-41", 0 ]
                }
            },
            {
                "patchline": {
                    "destination": [ "obj-97", 0 ],
                    "source": [ "obj-94", 0 ]
                }
            },
            {
                "patchline": {
                    "destination": [ "obj-109", 0 ],
                    "source": [ "obj-95", 0 ]
                }
            },
            {
                "patchline": {
                    "destination": [ "obj-111", 0 ],
                    "source": [ "obj-96", 0 ]
                }
            },
            {
                "patchline": {
                    "destination": [ "obj-144", 0 ],
                    "source": [ "obj-97", 0 ]
                }
            }
        ]
    }
}